<?xml version="1.0" encoding="UTF-8" standalone="no"?><!DOCTYPE svg PUBLIC "-//W3C//DTD SVG 1.1//EN" "http://www.w3.org/Graphics/SVG/1.1/DTD/svg11.dtd"><svg width="100%" height="100%" viewBox="0 0 800 200" version="1.1" xmlns="http://www.w3.org/2000/svg" xmlns:xlink="http://www.w3.org/1999/xlink" xml:space="preserve" xmlns:serif="http://www.serif.com/" style="fill-rule:evenodd;clip-rule:evenodd;stroke-linejoin:round;stroke-miterlimit:2;"><g><path d="M135.724,21.421l-111.414,0l0,27.961l41.726,0l0,118.297l27.961,0l0,-118.297l41.726,0l0,-27.961Z" style="fill:#cba249;fill-rule:nonzero;"/><path d="M268.431,21.421l-121.523,0l0,27.961l79.366,0l-79.366,98.079l0,20.218l121.523,0l0,-27.961l-79.366,0l79.366,-98.079l0,-20.218Z" style="fill:#cba249;fill-rule:nonzero;"/><path d="M379.2,167.679l29.682,0l-44.523,-146.258l-43.232,0l-44.738,146.258l29.897,0l8.388,-27.961l56.137,0l8.388,27.961Zm-56.137,-55.922l17.852,-59.578l3.441,0l18.067,59.578l-39.36,0Z" style="fill:#cba249;fill-rule:nonzero;"/><path d="M486.742,109.606l0,-3.441c30.112,-1.291 41.726,-14.841 41.726,-38.5c0,-26.455 -13.765,-46.243 -60.224,-46.243l-51.405,0l0,146.258l27.961,0l0,-44.738l57.858,0l0,44.738l27.961,0l0,-58.073l-43.877,0Zm-41.941,-14.626l0,-45.598l23.444,0c24.95,0 32.263,3.656 32.263,22.584c0,18.282 -7.313,23.014 -32.263,23.014l-23.444,0Z" style="fill:#cba249;fill-rule:nonzero;"/><path d="M641.388,167.679l29.682,0l-44.523,-146.258l-43.232,0l-44.738,146.258l29.897,0l8.388,-27.961l56.137,0l8.388,27.961Zm-56.137,-55.922l17.852,-59.578l3.441,0l18.067,59.578l-39.36,0Z" style="fill:#cba249;fill-rule:nonzero;"/><path d="M774.31,49.382l0,-27.961l-96.358,0l0,146.258l27.961,0l0,-52.696l55.707,0l0,-27.961l-55.707,0l0,-37.64l68.397,0Z" style="fill:#cba249;fill-rule:nonzero;"/></g></svg>