<?xml version="1.0" encoding="UTF-8" standalone="no"?><!DOCTYPE svg PUBLIC "-//W3C//DTD SVG 1.1//EN" "http://www.w3.org/Graphics/SVG/1.1/DTD/svg11.dtd"><svg width="100%" height="100%" viewBox="0 0 800 200" version="1.1" xmlns="http://www.w3.org/2000/svg" xmlns:xlink="http://www.w3.org/1999/xlink" xml:space="preserve" xmlns:serif="http://www.serif.com/" style="fill-rule:evenodd;clip-rule:evenodd;stroke-linejoin:round;stroke-miterlimit:2;"><path d="M135.724,21.421l0,27.961l-41.726,0l0,118.297l-27.961,0l0,-118.297l-41.726,0l0,-27.961l111.414,0Z" style="fill:#cba249;"/><path d="M268.431,21.421l0,20.218l-79.366,98.079l79.366,0l0,27.961l-121.523,0l0,-20.218l79.366,-98.079l-79.366,0l0,-27.961l121.523,0Z" style="fill:#cba249;"/><path d="M379.2,167.679l-8.388,-27.961l-56.137,0l-8.388,27.961l-29.897,0l44.738,-146.258l43.232,0l44.523,146.258l-29.682,0Zm-56.137,-55.922l39.36,0l-18.067,-59.578l-3.441,0l-17.852,59.578Z" style="fill:#cba249;"/><path d="M486.742,109.606l43.877,0l0,58.073l-27.961,0l0,-44.738l-57.858,0l0,44.738l-27.961,0l0,-146.258l51.405,0c7.912,0 14.876,0.574 20.985,1.657c5.12,0.908 9.64,2.173 13.615,3.758c4.343,1.732 8.036,3.846 11.148,6.291c4.274,3.358 7.456,7.341 9.73,11.822c3.364,6.625 4.745,14.336 4.745,22.716c0,8.011 -1.331,14.862 -4.262,20.472c-2.578,4.935 -6.394,8.909 -11.629,11.864c-2.915,1.645 -6.27,2.975 -10.096,3.979c-4.56,1.196 -9.789,1.93 -15.74,2.185l0,3.441Zm-41.941,-14.626l23.444,0c4.136,0 7.786,-0.13 11,-0.43c1.865,-0.174 3.583,-0.406 5.162,-0.702c5.602,-1.052 9.466,-2.925 12.001,-5.967c1.375,-1.65 2.359,-3.645 3.018,-6.039c0.754,-2.74 1.082,-6.004 1.082,-9.876c0,-8.454 -1.459,-13.862 -5.297,-17.258c-3.126,-2.766 -7.831,-4.197 -14.61,-4.853c-3.532,-0.342 -7.627,-0.473 -12.355,-0.473l-23.444,0l0,45.598Z" style="fill:#cba249;"/><path d="M641.388,167.679l-8.388,-27.961l-56.137,0l-8.388,27.961l-29.897,0l44.738,-146.258l43.232,0l44.523,146.258l-29.682,0Zm-56.137,-55.922l39.36,0l-18.067,-59.578l-3.441,0l-17.852,59.578Z" style="fill:#cba249;"/><path d="M774.31,49.382l-68.397,0l0,37.64l55.707,0l0,27.961l-55.707,0l0,52.696l-27.961,0l0,-146.258l96.358,0l0,27.961Z" style="fill:#cba249;"/></svg>